<svg xmlns="http://www.w3.org/2000/svg" id="a" viewBox="0 0 900 320"><defs><style>.j{fill:#735283}.aa,.ab,.ac,.ad,.ae,.ag,.ai,.aj,.al,.am,.an,.ao,.ap,.aq,.ar,.as,.au,.av,.aw,.ax,.az,.bb,.bc,.bd,.be,.bg,.bh,.bi,.bj,.bk,.bl,.bm,.bn,.j,.k,.m,.n,.o,.q,.s,.t,.u,.w{stroke-width:0}.ab,.ac,.ai,.aj,.am,.an,.aq,.ar,.au,.av,.aw,.bc,.bh,.k,.u{fill-rule:evenodd}.az,.k{fill:#5e436b}.m{fill:#89909b}.n{fill:#1d2432;opacity:.1}.bh,.o{fill:#7a578a}.s{fill:#9f80ae}.q{fill:#545c6d}.bm{fill:#f3eff5}.an,.t{fill:#9471a4}.u{fill:#c3987b}.ad{fill:#734d61}.w{fill:#4a3554}.aa,.au{fill:#583f64}.ab{fill:#734c5f}.ac,.bd{fill:#787f8d}.ae,.av{fill:#b3889d}.be{fill:#5f6878}.ag{fill:#abafb8}.ai{fill:#8e699f}.aj,.bg{fill:#96637c}.bn{fill:#ab90b8}.al{fill:#6c4d7b}.am,.bj{fill:#cfbfd6}.ao{fill:#404857}.ap{fill:#c3b0cc}.aq{fill:#543042}.ar{fill:#dfbda5}.as{fill:#654873}.aw{fill:#5e3a4c}.ax{fill:#d1a1b8}.bb{fill:#dbcfe0}.bc{fill:#8b6651}.bi{fill:#b7a0c2}.bk{fill:#232a38}.bl{fill:#88619a}</style></defs><g id="b"><path d="m340.44 304.69-3.78-4.55 55.53-10.49 100.19-7.59 58.28 2.68 20.02 1.85 52.93 10.84-51.4 14.31-122.15 4.47-8.72-4.95-2.68 3.57-98.22-10.14zM649.98 290.17v-14.26l118.72-8.44 64.91 6.31 38.45 10.17-46.1 14.69-83.92 3.54-7.58-5.7-6.1 3.62-78.38-9.93zM47.01 277.11l29-4.23 38.8-2.65 90.54 5.15 30.71-8.29 16.01 11.73-17.39 2.24-9.39 7.99-73.2 10.09-8.39-5.41-3.63 7.51-68.86-3.04-24.2-21.09z" class="n"/></g><g id="c"><path d="m818.06 291.93-11.49-1.63-8.65-17.9 23.9 3.66-3.76 15.87z" class="be"/><path d="m833.06 277.95-1.69 12.35-13.31 1.63-4.8-20.15 19.8 6.17zM742.04 302.18l12.94-2.55 7.86-20.44-19.97 11.41-3.09 3.33 2.26 8.25z" class="ao"/><path d="m742.87 290.6-.83 11.58-13.68-2.08-4.99-18.89 19.5 9.39z" class="be"/><path d="m649.98 290.17 10.34-1.43 7.93-17.28-15.99.27-5.35 4.99 3.07 13.45z" class="ao"/><path d="m637.28 276.09.62 11.99 12.08 2.09 3.44-18.71-16.14 4.63z" class="be"/><path d="m632.64 212.77 4.64 63.32 105.59 14.51 18.43-68.03-18.43-6.21-110.23-3.59z" class="t"/><path d="m742.87 290.6 90.19-12.65 9.27-72.34-64.12 2.71-31.61 18.46-3.73 63.82z" class="j"/><path d="m614.98 185.05 2.4 11.89 4.03 3.28-2.9 2.31 2.36 11.71 125.73 12.54 19.46-31.02-151.08-10.71z" class="ae"/><path d="m746.6 226.78 111.95-14.94 2.11-10.24-3.62-1.33 4.76-4.26 1.83-8.85-86.52 1.81-29.29 14.63-1.22 23.18z" class="bg"/><path d="m863.63 187.16-53.36-4.92-88.15-10.6-107.14 13.41 132.84 18.55 115.81-16.44z" class="ax"/><path d="m617.38 196.94 129.96 15.83 4.98 2.78-5.25 2.21-128.56-15.23-1.13-5.59z" class="bi"/><path d="m747.34 212.77 114.46-16.76-1.14 5.59-113.59 16.16.27-4.99z" class="s"/><path d="m647.07 226.09 84.15 9.64-3.08 40.84-79.21-11.06-1.06-24.17 2.61-1.79-2.86-2.84-.55-10.62z" class="bi"/><path d="m647.87 241.34 9.39 1.04.23-4.4-9.87-1.27.25 4.63z" class="bl"/><path d="m762.93 237.03 59.87-10.56-5 38.55-57.89 7.92 3.02-35.91z" class="t"/><path d="m833.3 184.37-14.55 7.43-59.41.28h-28.72l10.96-7.71 31.85-5.46 36.84 3.33 23.03 2.13z" class="n"/></g><g id="d"><path d="m666.92 98.11.27 4.74 1.2 1.11-1.12.2.22 3.75.6.76-.51.72.21 3.75.62.59-.55.54.23 3.94.83.8-.73.84.24 4.2 17.42 5.19 6.43-7.29-3.89-25.58-7.46-1.01-14.01 2.75z" class="as"/><path d="m687.43 111.51.11-1.19-20.05-2.41.09 1.48 19.85 2.12zM686.86 105.13l-19.67-2.28.08 1.31 19.48 2.21.11-1.24zM686.92 115.12l-19.13-1.98.07 1.13 18.83 1.98.23-1.13zM686.75 120.65l-18.66-2.44.1 1.64 18.39 1.65.17-.85zM683.16 73.05l7.49-4.97 10.84.23-8.36 8.81-9.97-4.07z" class="t"/><path d="M683.16 73.05 699 68.99l-4.74-28.24-12.53 2.74 1.43 29.56z" class="as"/><path d="m708.92 61.76-14.66-21.01-1.81 33.43-9.29-1.13-1.43-29.56-17.32 15.78 2.51 38.84 16.38 1.65 1.19 25.92-16.06-1.63 3.48 53.87 35.22 4.68 6.33-84.48-4.54-36.36z" class="j"/><path d="m708.92 61.76 16.49-3.39 4.08 121.07-22.36 3.16 1.79-120.84z" class="as"/><path d="m694.26 40.75 18.07-3.84 13.08 21.46-16.49 3.39-14.66-21.01z" class="t"/><path d="m702.5 43.58 8.13-2.26 7.57 13.32-7.45 1.25-8.25-12.31z" class="al"/><path d="m703.04 46.65 10.76-1.94.67.93-10.75 2.2-.68-1.19zM706.51 50.97l10.17-1.78.51.94-10.08 2.03-.6-1.19z" class="t"/><path d="m705.75 42.16 8.81 14.15.93-.17-9.06-14.4-.68.42zM676.25 84.26l.35 2.74 21.39 1.75.17-2.45-21.91-2.04zM698.25 85.19l.19-2.65-22.51-2.46.25 2.85 22.07 2.26zM714.19 66.48l6.08-1.11.37 2.95-6.36 1.01-.09-2.85zM714.74 73.66l5.71-.83.19 2.49-5.81.83-.09-2.49zM715.02 80.66l5.7-.92.19 2.48-5.89 1.11v-2.67zM676.49 135.73l2.4.28.3 4.24-2.5-.11-.2-4.41zM677.39 145.39l2.27.11.28 4.01-2.4-.23-.15-3.89zM678.15 154.82l2.17.22.31 3.79-2.18-.34-.3-3.67zM678.94 164.19l2.24.12.23 4.23-2.2-.24-.27-4.11z" class="t"/><path d="m750.39 68.93 11.52 2.03 5.25 22.53-1.86 72.87-7.63 15.71-15.15-2.58 7.87-110.56z" class="ax"/><path d="m761.91 70.96 11.52-2.03 3.22 110.03-18.98 3.11 4.24-111.11z" class="ae"/><path d="m754.54 74.52 2.71.51-.42 5.67-2.63-.5.34-5.68zM754.11 83.75l2.21.43-.26 4.82-2.45-.59.5-4.66zM766.31 74.77l2.29-.67.34 5.84-2.71.51.08-5.68zM766.31 84.18l2.54-.6.17 5.09-2.45.42-.26-4.91z" class="bm"/><path d="m750.39 68.93 3.48-8.25 1.68-1.15-.59-1.45 5.23-12.4 3.41 13.42-1.69 11.86-11.52-2.03z" class="o"/><path d="m760.19 45.68 6.97 12.24-.85 1.92 2.31.65 4.81 8.44-11.52 2.03-1.72-25.28z" class="al"/><path d="m754.96 58.08 6.15 1.12 1.81 1.51-1.64 1.05-7.41-1.08 1.09-2.6z" class="al"/><path d="m761.11 59.2 6.05-1.28 1.46 2.57-7.34 1.27-.17-2.56z" class="az"/><path d="m765.92 113.62-6.58 68.98 29.12 3.69-3.63-73.26-18.91.59z" class="bg"/><path d="m780.99 117.99 3.84-4.96 37.97-1.05-1.46 8.17-4.4 3.84 3.45 1.51-.56 3.12-2.16 2.14 1.51 1.52-.79 4.4-1.45 2.2.75 1.74-.75 4.22-2.85 2.18 2.16 1.7-.76 4.23-2.46 2.15 1.77 1.72-.71 3.98-2.39 3.36 1.41 2.16-2.84 15.92-21.81 4.05-1.76-16.14 1.76-2.8-2.21-1.31-.48-4.4 1.46-2.08-1.81-1.13-.51-4.67 1.34-1.74-1.69-1.39-.5-4.58 1.36-2.08-1.74-1.44-.53-4.86 1.41-1.83-1.79-1.56-.43-4 1.34-1.81-1.76-1.99-.93-8.49z" class="ad"/><path d="m765.92 113.62 34.26-5.44 22.62 3.8-41.81 6.01-15.07-4.37z" class="ax"/><path d="m786.98 111.32 11.53-1.16 3 1.54-12.27 1.53-2.26-1.91z" class="n"/><path d="m784.72 113.23 1.43-26.24 2.2.45.89 25.79h-4.52z" class="j"/><path d="m771.22 120.43 6.44 1.78.26 2.71-7.2-1.87.5-2.62zM770.72 126.19l7.11 2.12.17 2.45-7.88-1.86.6-2.71z" class="ax"/><path d="m813.11 166.32.98-5.52-27.84 5.24.45 4.11 26.41-3.83zM818.39 136.68l-34.71 5.85.38 3.52 33.63-5.43.7-3.94zM821.34 120.15l-39.42 6.33.42 3.8 38.05-4.78.95-5.35zM819.18 132.28l.65-3.66-37.06 5.66.38 3.39 36.03-5.39zM814.8 156.82l.69-3.87-30.07 5.48.35 3.21 29.03-4.82zM816.25 148.72l.69-3.88-32.38 5.79.35 3.13 31.34-5.04z" class="ae"/><path d="m692.9 162.27 2.26 25.18 7.22.95 2.18-2.67 2.03 3.22 3.74.48 1.1-1.59 2.77 2.1 4.5.59 1.79-1.58 1.69 2.03 8.44 1.1 12.2-26.53-22.13-.23-27.79-3.05z" class="o"/><path d="m730.62 192.08 32.98-6.21 3.39-28-32.41 10.72-1.92 2.15-2.04 21.34zM705.16 173.28l-4.07-.62 1.29 15.74 4.21.55-1.43-15.67zM718.7 190.53l3.48.45 1.44-15.33-4.06-.56-.86 15.44zM714.36 174.47l-4.52-.57.49 15.53 3.87.51.16-15.47z" class="as"/><path d="m688.27 139.46-1.58 23.49 45.97 7.79 1.69-14.68 4.01-13.78-50.09-2.82z" class="bl"/><path d="m730.29 146.91 14.45-6.66 29.59-3.39-.79 25.07-40.88 8.81-2.37-23.83z" class="aa"/><path d="m694.49 147.02 28.57 4.41.34 3.16-29.03-4.4.12-3.17zM694.82 154.7l28.46 4.75.34 3.38-29.13-4.63.33-3.5z" class="bj"/><path d="m738.42 151.77 5.98-1.36.34 2.94-6.21 1.35-.11-2.93zM738.87 158.66l5.76-1.25.11 3.39-5.65 1.13-.22-3.27z" class="ap"/><path d="m688.27 139.46 34.98-11.49 51.08 8.89-44.04 10.05-42.02-7.45z" class="bn"/><path d="m730.62 142.17-7.37-14.2 51.08 8.89-20.96 4.78-22.75.53z" class="n"/><path d="m701.83 128.05 1.35 9.52 27.44 4.6 8.25-13.1-28.24-.23-8.8-.79z" class="o"/><path d="m730.62 142.17 24.85-4.86 1.02-8.69-24.28 3.72-.91 2.1-.68 7.73z" class="as"/><path d="m692.28 97.67 42.18 1.51-3.16 35.26-38.51-5.97-.51-30.8z" class="bl"/><path d="m729.49 104.8 8.81-7.13 32.71-.88-2.54 32.45-37.17 5.2-1.81-29.64z" class="aa"/><path d="m692.28 97.67 34.16-8.92 44.57 8.04-41.52 8.01-37.21-7.13z" class="bn"/><path d="m697.65 104.33 25.75 4.86.11 3.16-25.52-4.63-.34-3.39zM698.1 112.47l25.3 4.29.22 3.39-25.41-4.3-.11-3.38zM698.66 120.15l25.08 4.29.33 3.39-25.29-4.3-.12-3.38z" class="bj"/><path d="m703.07 103.43 1.13 22.14 1.69.9-1.69-22.14-1.13-.9zM709.05 105.24l1.47 21.68 1.24.11-1.01-21-1.7-.79zM716.06 106.59l1.24 21.69 1.13-.34-.68-21.8-1.69.45z" class="bl"/><path d="m736.16 109.3 27.89-5.42-.45 3.62-27.22 5.3-.22-3.5zM736.5 116.87l27.1-4.4-.45 3.27-26.43 4.52-.22-3.39zM736.95 124.78l26.09-3.73-.23 2.94-25.75 3.84-.11-3.05z" class="ap"/><path d="m742.26 106.54.79 21.96.9-.22-.51-22.53-1.18.79zM749.37 105.8l.4 21.07.9-.17.4-21.52-1.7.62zM756.99 103.71l-1.29 22.48 1.18-.06.91-22.36-.8-.06z" class="aa"/><path d="m745.98 167.87 5.09-1.1 2.03-19.32 14.06 11.38-7.82 33.25-15.39-2.51.95-10.1 1.93-1.11-1.64-1.97.23-2.49 2.77-.16-2.55-2.17.34-3.7z" class="bl"/><path d="m759.34 192.08 16.23-2.14 1.37-11.62-2.05-.8 2.34-1.62.26-2.16-2.6-1.08 3.02-2.51 1.5-12.74-11.4-.59-6.1 3.98-2.57 31.28z" class="aa"/><path d="m779.41 157.41-12.42-12.91-13.89 2.95 8.81 13.35 17.5-3.39z" class="t"/><path d="m745.64 171.57 15.23 1.87 1.94 1.54-2.14.92-15.25-2 .22-2.33zM745.19 176.39l15.25 2.32 2.37 1.8-2.64 1.41-15.27-2.45.29-3.08z" class="ap"/><path d="m760.87 173.44 17.04-3.29-.42 3.59-16.82 2.16.2-2.46zM760.44 178.71l16.79-2.81-.29 2.42-16.77 3.6.27-3.21z" class="t"/><path d="m751.07 166.77-5.43 4.8.34-3.7 5.09-1.1z" class="n"/></g><g id="e"><path d="m407.8 133.23-9.34 117.42-8.18 2.7-2.04-19.58 3.69-87.01 5.23-12.13 10.64-1.4z" class="ax"/><path d="m396.23 134.63-5.95 118.72-6.34-2.56 1.71-122.23 10.58 6.07z" class="ae"/><path d="m462.69 105.22-93.77 6.97v21.61l5.25 9.52 85.82-10.8 2.7-27.3z" class="o"/><path d="m376.72 119.68-11.06-6.77-40.77-3.29 4.4 25.05 44.88 8.65 2.55-23.64z" class="al"/><path d="m462.69 105.22-57.07-8.5-80.73 12.9 51.83 10.06 85.97-14.46z" class="s"/><path d="m429.45 100.27-23.83-3.55-41.12 6.57 3.83 4.21 37.61.52 23.51-7.75z" class="n"/><path d="m399.59 79.27.66 25.95h-5.06L390 76.76l9.59 2.51z" class="ad"/><path d="m444.25 102.47-38.63-5.75 4.99-80.22 45.73 9.35-12.09 76.62z" style="fill:#9f80ae;opacity:.2;stroke-width:0"/><path d="m364.5 90.68 2.26 6.04 5.08-8.42 2.05 7.22 5.49-9.68-2.87-1.63-12.01 6.47zM346.31 84.21l1.07 8.53 4.89-6.41.99 8.44 4.58-6.46 1.89 8.41 4.77-6.04-6.66-6.47h-11.53z" class="bb"/><path d="m362.24 69.49 2.26 21.19 14.88-4.84 20.21-6.57 7.54-.33 5.79 3.74 14.53 3.72 13.27-24.29-19.03-11.41-59.45 18.79z" class="bi"/><path d="M351.46 69.2v5.75l-3.15 3.42-2 5.84 18.19 6.47 1.59-8.59-1.59-3.72 3.21-5.07-3.21-4.53-13.04.43z" class="s"/><path d="m421.69 50.7-26.5-4.69-43.73 23.19 16.25 4.1 53.98-22.6z" class="bb"/><path d="m367.71 73.3-7.49 4.82 5.87 3.97 1.62-8.79zM351.46 69.2l3.23 7.56-6.38 1.61 3.15-9.17zM420.33 56.76l5.53 9.1-9.64 4.1-2.94-6.84 7.05-6.36z" class="al"/><path d="m425.86 65.86-12.58-2.74-4.55 4.11 7.07 6.07 10.06-7.44z" class="bl"/><path d="m399.59 79.27 8.07-7.07 5.26 10.48-13.33-3.41z" class="s"/><path d="m384.36 32.97 71.98-7.12-12.09 76.62-68.22 11.49 8.33-80.99z" style="fill:#f3eff5;opacity:.2;stroke-width:0"/><path d="m329.36 26.78 55 6.19-8.33 80.99-33.92-7.1-12.75-80.08z" style="fill:#cfbfd6;opacity:.2;stroke-width:0"/><path d="m329.36 26.78 81.25-10.28 45.73 9.35-71.98 7.12-55-6.19z" style="fill:#f7f5f6;opacity:.3;stroke-width:0"/></g><g id="f"><path d="m237.78 161.03 14.29 117.79 76.53-7.27-13.77-110.88-77.05.36z" class="m"/><path d="m252.07 278.82-11.06-1.79-54.72-9.4 13.68-105.53 47.08 1.07 7.85 7.49-2.83 108.16z" style="fill:#68707f;stroke-width:0"/><path d="m199.97 162.1 54.93 8.56 59.93-9.99-63.44-9.57-51.42 11z" class="ag"/><path d="m214.01 159.09 20.01 4.72 24.09-1.71-6.72-11-37.38 7.99z" class="n"/><path d="m267.62 179.91 34.96-5.23 3.57 34.96-39.66 7.93 1.13-37.66z" class="o"/><path d="m210.07 172.08 31.16 4.52-1.85 13.5-30.68-4.8 1.37-13.22z" class="as"/><path d="m216.49 178.5 17.01 2.15-.48 1.9-16.88-2.26.35-1.79zM275.77 185.82l19.62-3.12.09 1.78-19.89 3.03.18-1.69zM280.41 190.28l10.79-1.7.26 1.79-10.88 1.87-.17-1.96z" class="s"/><path d="m281.3 201.16 10.79-1.52.36 6.24-10.53 2.05-.62-6.77z" class="ae"/><path d="m279.93 53.04 4 14.08-7.59 6.5-3.2-19.78 6.79-.8z" class="q"/><path d="m262.58 135.9 8.34-6.7-6.08-1.95-6.94 6.34 2.01 4.33 2.67-2.02z" class="ag"/><path d="m240.89 78.13 16.01-17.02 27.03 6.01-25.03 17.22-18.01-6.21z" class="bn"/><path d="m261.41 70.12-1.5-3 7.99-3.56 7.07 1.57-13.56 4.99z" class="n"/><path d="m283.93 67.12 5.64 9.33.37 9.79 10.21 7.71-18.62 11.41-26.63-8.21 3.6-18.02 25.43-12.01z" class="t"/><path d="m258.5 79.13 1.41 9.81-13.62 19.22-26.82-5.81 6.4-4.6-.7-10.05 5.91-15.18h20.72l6.7 6.61z" class="o"/><path d="m259.91 88.94 20.02 10.01-4.61 19.42-24.02 3-8.41-19.62 17.02-12.81z" class="bl"/><path d="m300.15 93.95-4.11 5 1.08 5.16-2.76 9.26-4.22 3 1.6 5.8-17.62-1.8-2.6-7.61 8.41-13.81 20.22-5z" class="o"/><path d="m219.47 102.35 5.8 3.71.75 5.87 6.47 9.44 3.19-.2-1 3.41 13.81.4 6.41-8.61-12.01-14.62-23.42.6zM291.74 122.17l-10.11-1.03-.57 4.64-10.14 3.42-9.51 1.81-3.51 2.58-7.8-7.61 4.8-9.61 16.62-3.61 20.22 9.41z" class="al"/><path d="m234.68 124.58 20.22-8.21 3 17.22-2.64-2.58-6.15-.83-4.48-1.74-3.01-3.86h-6.94z" class="az"/><path d="m276.59 81.07-8.41 2.13-4.54 7.61 1.07 3.14 5.41.1 4.65 3.7 5.86 5.3 19.52-9.1-10.58-17.5-5.64 2.75-2.67 11.14-8.01-2.64 3.47-3.36-.13-3.27z" class="o"/><path d="m263.64 90.81-1.06 5.34 3.33 2.8 4.21-4.9-6.48-3.24zM255.63 105.36l3.34-5.21 2.44.8-1.5 7.11-4.28-2.7zM270.12 94.05l3.64 6.66-6.45 2.38-.96 10.8 5.76 1.28 7.82-7.01v-9.21l-9.81-4.9z" class="as"/><path d="m279.93 98.95 20.22-5-3.03 10.16-7.78-.86-2.41 4.11 7.43 6.01-2.62 8.8-9.85-2.2-10.37-7.21 8.41-13.81z" class="az"/><path d="m271.52 112.76 1.62 6.61 7.92 6.41 10.68-3.61-20.22-9.41zM270.92 129.2l-13.91-.76-1.08 2.34 1.97 2.81 13.02-4.39z" class="aa"/><path d="m257.01 128.44-7.9 1.74 8.79 3.41-.89-5.15z" class="w"/><path d="m251.8 86.24 3.1-3.6 3 3.6-4.3 2.7-1.8-2.7zM241.99 88.94l8.11 3.6-1.44 4.87-5.77 4.34-8.21 3.35-15.21-2.75 5.7-14.65 5.91 7.18 7.1-.93 3.81-5.01z" class="az"/><path d="m242.89 101.75-7.11 9.31 5.01 4.61 7.77 3.27-4.57 4.23-9.31 1.41-2.19-3.21 2.59-3.6-3.2-6.41-5.86.57-6.55-9.58 23.42-.6z" class="aa"/><path d="m248.56 118.94-3.93 9.5-9.95-3.86 13.88-5.64z" class="w"/><path d="m258.5 79.13-1.6-18.02-25.82 11.41 27.42 6.61z" class="t"/><path d="m295.48 157.75-4.02-9.21-41.18 3.16 2.39 5.76 5.44 4.64 37.37-4.35z" class="ae"/><path d="m258.11 162.1-34.24-5.12 3.39-7.19h20.51l8.58 5.35 1.76 6.96z" class="bg"/><path d="m291.46 148.54-34.51-5.14-29.69 6.39 29.09 5.35 35.11-6.6z" class="ax"/><path d="m240.99 146.83 11.68 5.63 26.58-3.92-4.88-2.55-17.42-2.59-15.96 3.43z" class="n"/><path d="m255.63 148.97 2.27-15.38 4.68 2.31 1.06 13.07h-8.01zM253.51 57.18l4.19 12.94h3.71l1.17-10.54-.17-2.4h-8.9z" class="m"/><path d="m253.51 57.18 14.8-6.01 11.62 1.87-17.35 6.54-9.07-2.4z" class="ag"/></g><g id="g"><path d="m225.29 289.05-11.2-1.72-8.74-15.96 20.87 1.51.6 8.18-1.53 7.99z" class="q"/><path d="m89.48 292.9 10.37-1.19 6.2-13.68-16.57 2.56-1.43 4.87 1.43 7.44z" class="bd"/><path d="m75.33 281.12 4.4 10.35 9.75 1.43 4.01-13.44-18.16 1.66zM140.07 301.24l-11.77-2.01-5.88-12.04 16.22 1.33 5.06 5.21-3.63 7.51z" class="q"/><path d="m155.71 288.97-3.62 10.17-12.02 2.1-1.72-7.51 8.68-6.54 8.68 1.78zM241.01 277.03l-3.02 10.09-12.7 1.93-2.57-10.07 9.14-4.99 9.15 3.04z" class="bd"/><path d="m237.99 229.28-56.36-15.96-25.92 5.26 64.21 20.9 18.07-10.2z" class="t"/><path d="m167.13 218.58 51.13 14.51 7.96 17.71-3.5 28.18-62.49-13.31 6.9-47.09z" class="aa"/><path d="m157.36 121.92 21.9 119.96-23.31 13.8-47.56-.52-12.61-43-1.19-76.05 62.77-14.19z" class="ae"/><path d="m94.59 136.11-11.87 1.06 5.47 116.32 20.2 1.67-13.8-119.05zM107.51 129.93 126 256.77l3.81.48-19.68-129.46-2.62 2.14zM123.68 125.67l20.58 126.44 2.38-1.9-20.1-126.2-2.86 1.66zM140.07 122.8l22.06 125.98 2.62-1.19-21.6-126.67-3.08 1.88z" class="bg"/><path d="m94.59 136.11 62.77-14.19 5.72-12.4-69.2 10.19.71 16.4z" class="al"/><path d="M98.88 123.51v-6.66l-13.07-7.8-9.29 12.86 6.2 15.26 11.87-1.06 4.29-12.6z" class="aa"/><path d="m163.08 109.52-12.8-8.78-64.47 8.31 13.07 14.46 64.2-13.99zM83.42 123.57l2.65-4.76 5.91 7.56-4.76 5.23-3.8-8.03z" class="t"/><path d="m179.26 241.88 41.3 14.9-71.39 21.01-40.78-22.63 70.87-13.28z" class="ax"/><path d="m155.71 288.97 67.01-9.99 4.93-14.15-7.09-8.05-73.88 10.08 9.03 22.11z" class="ae"/><path d="m79.61 229.28-1.04 12.6 8 16.59-10.56 14.41-.68 8.24 63.02 12.61 2.86-51.61-34.25-9.03-27.35-3.81z" class="aa"/><path d="m131.69 243.55.95-3.09H150l5.71 48.51-17.36 4.76-6.66-50.18z" class="al"/><path d="m79.61 229.28 14.03-3.33L150 240.46l-18.31 3.09-52.08-14.27z" class="t"/><path d="m218.26 233.09 19.73-3.81 3.02 47.75-18.29 1.95-4.46-45.89z" class="al"/><path d="m78.57 241.88 40.09 11.36 5.02 27.82-47.67-8.18.63-7.59 6.78-5.67-5.58-8.83.73-8.91z" class="j"/><path d="m76.64 265.29 31.63 4.1 1.84-7.92-32.27-10.68-1.2 14.5z" class="aa"/><path d="m139.07 250.57 6.3-1.91 4.04 36.03-6.06 1.9-4.28-36.02zM225.51 238.44l6.42-1.55 2.85 35.55-5.94.84-3.33-34.84z" class="bg"/></g><g id="h"><path d="m497.66 154.08-13.23 34.7.5 15.01 11.63 1.5 10.6-11.57-1.2-36.4-8.3-3.24z" class="ab"/><path d="m474.43 206.85 10-18.07 18.3 11.68-6.17 4.83-13.8 10.5-9.68-3.28 1.35-5.66z" class="aq"/><path d="m495.8 218.41 1.97 36.72 12.09 17.06 13.85-4.88 8.95-20.21-6.2-11.11-30.66-17.58zM579.66 195.05l-19.01-15.43 13.6-29.92 16.52 27.71-11.11 17.64z" class="ab"/><path d="m534.44 167.44-9.23-16.16-23.16 2.15-1.59 7.17-3.9 44.69 42.21 17.05 32.71-9.18-.79-53.93-11.46-4.47-9.63-14.12-15.16 26.8z" class="aj"/><path d="m526.91 157.49-26.45 3.11-2.8-6.52 26.41-9.83 2.84 13.24z" class="au"/><path d="m544.17 270.74-11.51-23.64 13.42-15.02 25.1-9.66-.33 41.92-12.93 8.78-13.75-2.38z" class="aj"/><path d="m495.8 218.41 36.86 28.69 38.52-24.68-39.42-7.33-35.96 3.32z" class="aw"/><path d="m570.85 264.34-26.68 6.4 6.49 14 10.06 2.62 9.96-.77.17-22.25z" style="fill:#734d61;fill-rule:evenodd;stroke-width:0"/><path d="m518.55 290.66-14.08 1.26-20.61-1.26 15.18-15.32 9.18-.52 10.29 5.39.04 10.45z" style="fill:#815c92;fill-rule:evenodd;stroke-width:0"/><path d="M518.55 295.49h-34.69v-4.83h34.69z" class="aa"/><path d="m550.66 284.74-5.89 13.22 13.91 1.33 14.3-1.33-2.3-11.37-20.02-1.85z" class="an"/><path d="M572.98 302.32h-28.2v-4.36h28.2z" class="aa"/><path d="m518.47 197.68-2.87 20.68 12.69 1.99 27.02-1.75-1.33-15.4-7.28-22.7-10.63-17.41-12.55 15.93-5.05 18.66z" class="ab"/><path d="m541.11 152.06 29.58 7.17 3.56-9.53-24.65-9.06-8.49 11.42z" class="au"/><path d="m549.6 140.64 4.38 62.56-17.91-40.11 2.81-13.39 10.72-9.06zM536.07 163.09l-17.6 34.59 6.54-48.77 8.84 4.01 2.22 10.17zM533.51 184.52l-3.72 2.78 3.55 4.75 4.19-3.77-4.02-3.76zM533.34 199.06l3.94 4.54-4.41 3.16-3.68-4.15 4.15-3.55z" class="av"/><path d="m571.48 213.16-27.83-2.89-10.13.2-10.65-2.4-26.31-2.78-.76 13.12 26.66 1.28 9.7-.44 11.34 1.57 27.68 1.6.3-9.26z" class="au"/><path d="m522.46 219.69 21.04 1.13.14-10.55-20.78-2.2-.41 11.62Zm4.9-7.56 12.41 1.16.03 4.76-12.67-.75.23-5.17Z" class="av"/><path d="m560.54 111.46-6.63-2.28-11.51 7.55 6.51 7.02 17.71 2.97-6.08-15.26z" class="k"/><path d="m477.32 80.56 2.29 16.29 11.99 50.21 24.89-2.7 14.44 12.96 14.24-20.77-4.67-27.07-4.22-2.13-1.64-12.77 2.21-18.91-20.57-12.21-20.95 10.29-3.46-11.16-14.55 17.97z" class="ar"/><path d="M536.06 75.93 522.19 98.5l-.35 47.25 14.23 17.34 13.53-22.45-.69-16.89-1.4-3.72.27-3.6 7.12-.47 1.01-16.53-10.68-.77-4.62 9.27-3.44.1-1.92-13.25.81-18.85zM485.76 102.53l18.67-3.31 17.76-.72-10.16 9.24-6.07 16.26-20.2-21.47z" class="u"/><path d="m552.78 102.73-5.4-.21-2.03 10.56 7.43-10.35zM516.49 144.36l17.53-1.92 2.05 20.65-19.58-18.73zM547.78 116.43l-4.7.35 5.83 6.97-1.13-7.32z" class="bc"/><path d="m478.57 80.49-3.75-7.14-8.52-6.5 13.31 30-1.04-16.36z" style="fill:#9f80ae;fill-rule:evenodd;stroke-width:0"/><path d="m536.06 75.93 12.96-6.47 20.74-4.85-5.87 29.8-17.48 1.33-14.24-1.17 3.89-18.64z" class="an"/><path d="m478.57 80.49 12.96-13.9 7.63-6.25 8.09-10.6-40.95 17.11 12.27 13.64zM536.06 75.93l-21.23-9.32 13.25-9.77 16.76-5.26 24.92 13.03-33.7 11.32z" class="bh"/><path d="m507.25 49.74 24.63-10.29 12.96 12.13-30.01 15.03-21.27 10.42-2.03-10.44 15.72-16.85z" class="an"/><path d="m532.17 94.57 31.72-.16-3.35 17.05-5.64 4.5.27-15.87-10.04-.03-3.29 10.43-5.99-1.31-3.68-14.61z" class="bh"/><circle cx="491.74" cy="110.89" r="2.83" class="bk"/><circle cx="511.87" cy="108.43" r="2.83" class="bk"/><path d="m523.71 267.31-25.94-12.18 1.27 20.21 19.47 4.87 5.2-12.9z" class="aw"/><path d="m521.94 132.8-18.07 4.73-11.49-2.3 11.23-5.31 18.33 2.88z" class="u"/><path d="m521.94 132.8-15.98-8.8-3.31 1.54-4.09-.65-6.18 10.34 29.56-2.43z" class="bh"/><path d="m502.22 100.71 3.74 23.29-3.31 1.54-4.09-.65-2.56-24.62 6.22.44z" style="fill:#e8cab6;fill-rule:evenodd;stroke-width:0"/><path d="m522.19 98.5-36.43 4.03-.83-4.73 35.02-1.83 2.24 2.53z" class="bh"/><path d="m498.55 124.85 4.19 2.51 3.22-3.36-7.41.85z" class="k"/><path d="m590.77 177.41-19.51 20.74 2.99 9.92 7.38-.93 20.51-10.79-11.37-18.94z" class="aq"/><path d="m571.18 222.42 10.58-5.32-6.33-6.52-4.25 11.84z" class="u"/><path d="m571.26 198.15-8.27 8.7 8.19 15.57 10.45-15.28-10.37-8.99z" class="ar"/></g><g id="i"><path d="m405.54 299.68 10.52-1.36 8.39-24.87-16.41 2.05-6.69 11.86 4.19 12.32z" class="aj"/><path d="m391.31 284.98 2.48 13.16 11.75 1.54 5.85-24.86-20.08 10.16z" class="av"/><path d="m340.44 304.69 12.52-2.32 12.84-26.99-23.31 4.03-3.92 10.63 1.87 14.65z" class="aj"/><path d="m324.76 284.69 2.93 19.17 12.75.83 8.12-25.28-23.8 5.28zM450.06 316.21l-11.4-1.38-9.99-28.54 24.21 4.87v12.25l-2.82 12.8z" class="av"/><path d="m447.2 293.7 2.86 22.51 12.56-2.09 7.66-30.75-23.08 10.33z" class="aj"/><path d="m512.81 306.51-10.54-1.43-6.47-24.87 15.98-7.09 3.82 11.62-2.79 21.77z" class="av"/><path d="m530.72 277.42-5.5 26.71-12.41 2.38-3.32-32.47 21.23 3.38z" class="aj"/><path d="m319.8 254.57 4.96 30.12 122.44 9.01 5.68-26.03-19.69-3.33-77.77-12.7-35.62 2.93z" style="fill:#5f6878;fill-rule:evenodd;stroke-width:0"/><path d="m452.92 262.7 70.79-18.72 2.57 9.36-6.18 18.85-63.01 11.18-4.17-20.67z" style="fill:#3d4554;fill-rule:evenodd;stroke-width:0"/><path d="m467.07 260.01 2.5 19.38 2.14-.59-1.66-18.79h-2.98zM479.2 258.59l-.83 18.78 2.26-.12 1.31-18.54-2.74-.12zM490.38 256.56l-2.02 19.03 2.02-.36 2.38-19.14-2.38.47zM500.49 254.07l-2.38 19.62 1.54-.24 3.81-20.1-2.97.72zM507.5 272.26l3.93-21.76 1.66-.12-3.57 21.05-2.02.83z" class="ac"/><path d="m517.65 246.78 4.19 5.31-6.24 16.75-53.34 9.64-2.47-10.29 2.47-5.49-17.9 9.49 2.84 21.51 83.52-16.28 6.81-33.44-19.88 2.8z" style="fill:#4b5464;fill-rule:evenodd;stroke-width:0"/><path d="m301.41 231.1 4.44 21.66 26.58 3.73 15.1-1.71 68.37 9.65 14.5 5.8 13.96 1.96 8.56-19.19-88.22-21.9h-63.29z" style="fill:#ab90b8;fill-rule:evenodd;stroke-width:0"/><path d="m444.36 272.19 15.43-4 11.92-6.87 48.39-13.55 8.33 2.61 19.6-5.08 4.75-23.94-85.49 14.28-24.35 22.11 1.42 14.44z" class="an"/><path d="m301.41 231.1 100.39-23.03 150.98 13.29-58.67 19.44-21 4.77-11.73 6.07-18.44 6.11-141.53-26.65z" class="am"/><path d="m332.43 256.49 4.98-9.72 89.36 14.37 3.63 9.09-97.97-13.74z" class="an"/><path d="m358.66 272.55-.86-6.22-16.41-1.9.87 6.54 16.4 1.58zM342.6 273.61l.69 5.21 16.41 1.31-.74-5.42-16.36-1.1z" class="am"/><path d="m459.79 268.19 4.25-9.23 60.6-16.85 3.79 8.27-68.64 17.81z" class="bh"/><path d="m347.74 229.23 56.91-15.71 104.84 12.74-73.71 19.58-88.04-16.61z" style="fill:#fbfafb;fill-rule:evenodd;stroke-width:0"/><path d="m360.77 232.96 70.1-17.66 2.67.54-70.09 17.66-2.68-.54zM390.2 237.78l63.68-19.8 2.85.53-63.67 20.52-2.86-1.25zM409.64 242.24l70.1-21.41 2.14.9-68.85 21.4-3.39-.89z" class="am"/></g></svg>