<svg id="visual" viewBox="0 0 900 600" width="900" height="600" xmlns="http://www.w3.org/2000/svg" xmlns:xlink="http://www.w3.org/1999/xlink" version="1.1"><path d="M0 217L37.5 227C75 237 150 257 225 241C300 225 375 173 450 156C525 139 600 157 675 171C750 185 825 195 862.5 200L900 205L900 0L862.5 0C825 0 750 0 675 0C600 0 525 0 450 0C375 0 300 0 225 0C150 0 75 0 37.5 0L0 0Z" fill="#ffffff"></path><path d="M0 361L37.5 374C75 387 150 413 225 421C300 429 375 419 450 402C525 385 600 361 675 364C750 367 825 397 862.5 412L900 427L900 203L862.5 198C825 193 750 183 675 169C600 155 525 137 450 154C375 171 300 223 225 239C150 255 75 235 37.5 225L0 215Z" fill="#c1cbf1"></path><path d="M0 505L37.5 503C75 501 150 497 225 493C300 489 375 485 450 475C525 465 600 449 675 448C750 447 825 461 862.5 468L900 475L900 425L862.5 410C825 395 750 365 675 362C600 359 525 383 450 400C375 417 300 427 225 419C150 411 75 385 37.5 372L0 359Z" fill="#7e9ae3"></path><path d="M0 601L37.5 601C75 601 150 601 225 601C300 601 375 601 450 601C525 601 600 601 675 601C750 601 825 601 862.5 601L900 601L900 473L862.5 466C825 459 750 445 675 446C600 447 525 463 450 473C375 483 300 487 225 491C150 495 75 499 37.5 501L0 503Z" fill="#006dd3"></path></svg>